<svg xmlns="http://www.w3.org/2000/svg" width="14"
    height="10.281" viewBox="0 0 14 10.281">
    <g>
        <g>
            <path
                d="M12.359,68H1.641A1.642,1.642,0,0,0,0,69.641v7a1.642,1.642,0,0,0,1.641,1.641H12.359A1.642,1.642,0,0,0,14,76.641v-7A1.642,1.642,0,0,0,12.359,68Zm.547,8.641a.547.547,0,0,1-.547.547H1.641a.547.547,0,0,1-.547-.547v-7a.548.548,0,0,1,.547-.547H12.359a.548.548,0,0,1,.547.547Z"
                transform="translate(0 -68)" />
        </g>
    </g>
    <g transform="translate(0.534 0.682)">
        <g>
            <path
                d="M31.8,92.937l-5.813,4.324-5.813-4.324-.653.878,6.466,4.81,6.466-4.81Z"
                transform="translate(-19.522 -92.937)" />
        </g>
    </g>
</svg>