<svg xmlns="http://www.w3.org/2000/svg" width="21.759"
    height="21.763" viewBox="0 0 21.759 21.763">
    <path
        d="M22.153,6.4a7.952,7.952,0,0,0-.506-2.64A5.575,5.575,0,0,0,18.462.574a7.973,7.973,0,0,0-2.64-.506C14.657.013,14.288,0,11.333,0S8.008.013,6.848.064A7.954,7.954,0,0,0,4.208.57a5.31,5.31,0,0,0-1.93,1.258A5.358,5.358,0,0,0,1.023,3.754a7.974,7.974,0,0,0-.506,2.64C.462,7.559.449,7.929.449,10.884s.013,3.325.064,4.485a7.952,7.952,0,0,0,.506,2.64A5.574,5.574,0,0,0,4.2,21.193a7.974,7.974,0,0,0,2.64.506c1.161.051,1.531.064,4.485.064s3.325-.013,4.485-.064a7.951,7.951,0,0,0,2.64-.506,5.567,5.567,0,0,0,3.184-3.184,7.978,7.978,0,0,0,.506-2.64c.051-1.161.064-1.531.064-4.485S22.2,7.559,22.153,6.4Zm-1.96,8.885a5.965,5.965,0,0,1-.374,2.019,3.61,3.61,0,0,1-2.066,2.066,5.987,5.987,0,0,1-2.019.374c-1.148.051-1.492.064-4.4.064s-3.252-.013-4.4-.064a5.962,5.962,0,0,1-2.019-.374,3.349,3.349,0,0,1-1.25-.812,3.383,3.383,0,0,1-.812-1.25,5.987,5.987,0,0,1-.374-2.019c-.051-1.148-.064-1.492-.064-4.4s.013-3.252.064-4.4A5.962,5.962,0,0,1,2.86,4.477a3.308,3.308,0,0,1,.816-1.25,3.378,3.378,0,0,1,1.25-.812,5.99,5.99,0,0,1,2.019-.374c1.148-.051,1.492-.064,4.4-.064s3.252.013,4.4.064a5.965,5.965,0,0,1,2.019.374,3.346,3.346,0,0,1,1.25.812,3.383,3.383,0,0,1,.812,1.25A5.989,5.989,0,0,1,20.193,6.5c.051,1.148.064,1.492.064,4.4S20.244,14.136,20.193,15.284Zm0,0"
        transform="translate(-0.449 0)" />
    <path
        d="M130.54,124.5a5.591,5.591,0,1,0,5.591,5.591A5.592,5.592,0,0,0,130.54,124.5Zm0,9.217a3.627,3.627,0,1,1,3.627-3.627A3.627,3.627,0,0,1,130.54,133.717Zm0,0"
        transform="translate(-119.656 -119.207)" />
    <path
        d="M365.06,89.907a1.305,1.305,0,1,1-1.305-1.305A1.305,1.305,0,0,1,365.06,89.907Zm0,0"
        transform="translate(-347.059 -84.835)" />
</svg>